<svg width="192" height="192" viewBox="0 0 192 192" xmlns="http://www.w3.org/2000/svg">
  <defs>
    <linearGradient id="bg" x1="0%" y1="0%" x2="100%" y2="100%">
      <stop offset="0%" style="stop-color:#2563eb;stop-opacity:1" />
      <stop offset="100%" style="stop-color:#1d4ed8;stop-opacity:1" />
    </linearGradient>
  </defs>
  
  <!-- 背景円 -->
  <circle cx="96" cy="96" r="88" fill="url(#bg)" stroke="#1e40af" stroke-width="4"/>
  
  <!-- メモ帳のアイコン -->
  <g transform="translate(48, 40)">
    <!-- メモ帳背景 -->
    <rect x="0" y="8" width="96" height="120" rx="8" fill="#ffffff" stroke="#e5e7eb" stroke-width="2"/>
    
    <!-- リング部分 -->
    <rect x="12" y="0" width="8" height="16" rx="4" fill="#6b7280"/>
    <rect x="28" y="0" width="8" height="16" rx="4" fill="#6b7280"/>
    <rect x="44" y="0" width="8" height="16" rx="4" fill="#6b7280"/>
    <rect x="60" y="0" width="8" height="16" rx="4" fill="#6b7280"/>
    <rect x="76" y="0" width="8" height="16" rx="4" fill="#6b7280"/>
    
    <!-- チェックリスト項目 -->
    <!-- 完了済み項目 -->
    <g transform="translate(16, 32)">
      <circle cx="6" cy="6" r="5" fill="#059669" stroke="#047857" stroke-width="1"/>
      <path d="M 3 6 L 5.5 8.5 L 9 4.5" stroke="#ffffff" stroke-width="2" fill="none"/>
      <rect x="18" y="4" width="48" height="2" rx="1" fill="#9ca3af"/>
    </g>
    
    <!-- 未完了項目 -->
    <g transform="translate(16, 52)">
      <circle cx="6" cy="6" r="5" fill="none" stroke="#d1d5db" stroke-width="2"/>
      <rect x="18" y="4" width="48" height="2" rx="1" fill="#374151"/>
    </g>
    
    <g transform="translate(16, 72)">
      <circle cx="6" cy="6" r="5" fill="none" stroke="#d1d5db" stroke-width="2"/>
      <rect x="18" y="4" width="32" height="2" rx="1" fill="#374151"/>
    </g>
    
    <g transform="translate(16, 92)">
      <circle cx="6" cy="6" r="5" fill="none" stroke="#d1d5db" stroke-width="2"/>
      <rect x="18" y="4" width="40" height="2" rx="1" fill="#374151"/>
    </g>
  </g>
  
  <!-- +アイコン （右下） -->
  <g transform="translate(140, 140)">
    <circle cx="16" cy="16" r="14" fill="#059669" stroke="#047857" stroke-width="2"/>
    <path d="M 16 8 L 16 24 M 8 16 L 24 16" stroke="#ffffff" stroke-width="3" stroke-linecap="round"/>
  </g>
</svg>